# xmcd
#
# Track frame offsets:
#	150
#	13291
#	22996
#	37284
#	53722
#	61537
#	72428
#	86866
#	98767
#	113743
#	124830
#	138832
#	152581
#	166343
#	180158
#	193059
#	206065
#	220646
#	234448
#	242699
#
# Disc length: 3446 seconds
#
# Revision: 0
# Processed by: cddbd v1.5.1PL0 Copyright (c) Steve Scherf et al.
# Submitted via: audiograbber 1.83.01
#
DISCID=0d0d7414
DTITLE=FrankSinatra - ThisLoveOfMine
DYEAR=2001
DGENRE=Oldies
TTITLE0=Dolores
TTITLE1=Lilli Bolero
TTITLE2=Stardust
TTITLE3=This love of mine
TTITLE4=S'wonderful
TTITLE5=Ciribiribin
TTITLE6=Imagination
TTITLE7=Long Ago and far away
TTITLE8=People will say we're in love
TTITLE9=Suddely, itìs Spring
TTITLE10=Day by day
TTITLE11=I dream of you
TTITLE12=If you are but a dream
TTITLE13=Night and day
TTITLE14=What makes the sunset?
TTITLE15=A good man is hard to find
TTITLE16=Fools rush in
TTITLE17=I'll get by
TTITLE18=Little white lies
TTITLE19=The one i love belongs to somebody Else
EXTD=
EXTT0=
EXTT1=
EXTT2=
EXTT3=
EXTT4=
EXTT5=
EXTT6=
EXTT7=
EXTT8=
EXTT9=
EXTT10=
EXTT11=
EXTT12=
EXTT13=
EXTT14=
EXTT15=
EXTT16=
EXTT17=
EXTT18=
EXTT19=
PLAYORDER=
